<?xml version="1.0" standalone="no"?><!DOCTYPE svg PUBLIC "-//W3C//DTD SVG 1.1//EN" "http://www.w3.org/Graphics/SVG/1.1/DTD/svg11.dtd"><svg t="1531660486174" class="icon" style="" viewBox="0 0 1026 1024" version="1.1" xmlns="http://www.w3.org/2000/svg" p-id="1122" xmlns:xlink="http://www.w3.org/1999/xlink" width="200.390625" height="200"><defs><style type="text/css"></style></defs><path d="M525.473684 935.073684c-148.210526 0-285.642105-8.084211-417.68421-32.336842-70.063158-13.473684-107.789474-59.284211-107.789474-121.263158 0-18.863158 8.084211-26.947368 24.252632-26.947368h43.115789c16.168421 0 29.642105 5.389474 35.031579 24.252631 8.084211 26.947368 26.947368 37.726316 53.894737 40.421053 64.673684 8.084211 126.652632 16.168421 191.326316 21.557895 102.4 5.389474 202.105263 8.084211 304.505263 0 72.757895-5.389474 145.515789-10.778947 218.273684-24.252632 18.863158-2.694737 35.031579-13.473684 40.421053-29.642105 8.084211-29.642105 26.947368-32.336842 51.2-32.336842 64.673684 0 67.368421 2.694737 51.2 64.673684-10.778947 37.726316-32.336842 64.673684-72.757895 78.147368-61.978947 18.863158-129.347368 24.252632-194.021053 29.642106-78.147368 5.389474-156.294737 10.778947-220.968421 8.08421z m0-840.757895c115.873684-8.084211 242.526316 5.389474 369.178948 26.947369 75.452632 10.778947 110.484211 29.642105 126.652631 118.568421 5.389474 24.252632-5.389474 32.336842-26.947368 32.336842-13.473684 0-29.642105-2.694737-43.11579-2.694737-18.863158 0-29.642105-5.389474-35.031579-24.252631-8.084211-24.252632-26.947368-35.031579-51.2-37.726316C716.8 188.631579 565.894737 175.157895 414.989474 183.242105c-88.926316 5.389474-175.157895 16.168421-264.084211 24.252632-18.863158 2.694737-37.726316 13.473684-43.115789 35.031579-8.084211 24.252632-26.947368 29.642105-48.505263 26.947368H26.947368c-18.863158 0-26.947368-8.084211-26.947368-29.642105 0-53.894737 35.031579-99.705263 86.231579-110.484211 140.126316-29.642105 282.947368-40.421053 439.242105-35.031579z m-113.178947 420.378948v123.957895c0 13.473684-2.694737 29.642105-5.389474 43.115789-5.389474 18.863158-32.336842 37.726316 8.084211 51.2 8.084211 2.694737 8.084211 21.557895 2.694737 35.031579-2.694737 10.778947-16.168421 16.168421-24.252632 13.473684-29.642105-2.694737-61.978947 2.694737-80.842105-29.642105-5.389474-10.778947-13.473684-10.778947-24.252632-10.778947s-21.557895 0-29.642105-2.694737c-97.010526-13.473684-107.789474-26.947368-107.789474-123.957895v-242.526316c0-43.115789 16.168421-64.673684 56.589474-78.147368 51.2-16.168421 102.4-13.473684 153.6 2.694737 35.031579 10.778947 51.2 35.031579 51.2 75.452631v142.821053z m-105.094737 0v-134.736842c0-18.863158-2.694737-32.336842-26.947368-32.336842-21.557895 0-29.642105 10.778947-29.642106 29.642105v266.778947c0 18.863158 5.389474 35.031579 29.642106 35.031579 24.252632 0 26.947368-18.863158 26.947368-37.726316v-126.652631z m433.852632-75.452632c13.473684-40.421053 24.252632-72.757895 32.336842-107.789473 5.389474-24.252632 18.863158-35.031579 45.810526-35.031579 80.842105 0 70.063158 5.389474 48.505263 64.673684-18.863158 53.894737-35.031579 107.789474-56.589474 156.294737-24.252632 51.2-16.168421 105.094737-18.863157 158.989473 0 18.863158 8.084211 40.421053-16.168421 48.505264-24.252632 8.084211-51.2 2.694737-75.452632-2.694737-5.389474-2.694737-8.084211-8.084211-8.084211-16.168421V700.631579c18.863158-132.042105-45.810526-242.526316-83.536842-361.094737-13.473684-37.726316-10.778947-43.115789 29.642106-43.115789h26.947368c21.557895-2.694737 35.031579 8.084211 40.421053 29.642105 10.778947 35.031579 21.557895 70.063158 35.031579 113.178947zM1024 517.389474v177.852631c0 24.252632-8.084211 35.031579-32.336842 35.031579-67.368421 0-67.368421 2.694737-67.368421-67.368421V336.842105c0-29.642105 10.778947-40.421053 40.421052-40.421052 61.978947 0 61.978947 0 61.978948 59.28421l-2.694737 161.684211z m-460.8 0V700.631579c0 21.557895-5.389474 26.947368-26.947368 29.642105-75.452632 5.389474-75.452632 5.389474-75.452632-70.063158V344.926316c0-40.421053 2.694737-45.810526 43.115789-45.810527h18.863158c29.642105-2.694737 40.421053 10.778947 40.421053 40.421053v177.852632zM97.010526 576.673684v121.263158c0 21.557895-8.084211 29.642105-32.336842 32.336842-64.673684 2.694737-64.673684 2.694737-64.673684-61.978947v-204.8c0-24.252632 8.084211-35.031579 35.031579-35.031579 72.757895 0 61.978947-5.389474 61.978947 59.28421v88.926316z m0-229.052631c0 51.2 0 51.2-45.810526 51.2-51.2 0-51.2 0-51.2-51.2 0-48.505263 0-48.505263 51.2-48.505264 45.810526 0 45.810526 0 45.810526 48.505264z" fill="#42BD56" p-id="1123"></path></svg>