<?xml version="1.0" standalone="no"?><!DOCTYPE svg PUBLIC "-//W3C//DTD SVG 1.1//EN" "http://www.w3.org/Graphics/SVG/1.1/DTD/svg11.dtd"><svg t="1531845603561" class="icon" style="" viewBox="0 0 1117 1024" version="1.1" xmlns="http://www.w3.org/2000/svg" p-id="5995" xmlns:xlink="http://www.w3.org/1999/xlink" width="218.1640625" height="200"><defs><style type="text/css"></style></defs><path d="M1019.345455 1024H97.745455C41.890909 1024 0 977.454545 0 926.254545v-251.345454c18.618182 13.963636 69.818182 130.327273 242.036364 134.981818 162.909091 4.654545 339.781818-274.618182 530.618181-297.890909 139.636364-13.963636 279.272727 134.981818 344.436364 209.454545v204.8c0 51.2-41.890909 97.745455-97.745454 97.745455zM758.690909 409.6c-107.054545 13.963636-158.254545 60.509091-218.763636 102.4-134.981818 88.436364-214.109091 195.490909-325.818182 186.181818-93.090909-9.309091-190.836364-125.672727-214.109091-148.945454V97.745455C0 41.890909 41.890909 0 97.745455 0h921.6c55.854545 0 97.745455 41.890909 97.745454 97.745455v493.381818c-97.745455-121.018182-251.345455-195.490909-358.4-181.527273zM325.818182 186.181818C246.690909 186.181818 186.181818 246.690909 186.181818 325.818182s60.509091 139.636364 139.636364 139.636363 139.636364-60.509091 139.636363-139.636363-60.509091-139.636364-139.636363-139.636364z" fill="#00000059" p-id="5996"></path></svg>