<?xml version="1.0" standalone="no"?><!DOCTYPE svg PUBLIC "-//W3C//DTD SVG 1.1//EN" "http://www.w3.org/Graphics/SVG/1.1/DTD/svg11.dtd"><svg t="1531660619878" class="icon" style="" viewBox="0 0 1024 1024" version="1.1" xmlns="http://www.w3.org/2000/svg" p-id="1740" xmlns:xlink="http://www.w3.org/1999/xlink" width="200" height="200"><defs><style type="text/css"></style></defs><path d="M462.13 144.36c38.08-5.05 76.93-4.33 114.77 2.37 71.61 12.79 139.42 46.93 191.67 97.64 47.99 45.68 82.91 104.7 100.52 168.53 18.57 66.78 17.75 138.82-2.28 205.17-8.32 27.49-19.81 53.99-34.06 78.91-4.88 7.99-9.47 16.21-15.15 23.66 1.43-5.33 4.21-10.17 5.52-15.53 3.3-12.82 2.14-26.76-3.4-38.79-6.34-14.18-18.65-25.58-33.3-30.77-15.11-5.6-32.51-4.43-46.79 3.01-5.7 2.71-10.36 7.03-15.35 10.79 20.94-32.58 34.56-69.91 38.98-108.41 5.07-43.33-1.17-87.98-18.33-128.11-14.82-35.53-38.13-67.4-67.18-92.62-28.12-24.69-61.97-42.67-97.95-52.81-44.51-12.53-92.47-12.47-136.97 0.09-26.02 7.41-50.92 18.84-73.33 34.01-25.05 16.92-46.89 38.46-64.57 62.96 1.05-5.86 3.09-11.54 3.36-17.52 1.4-16.89-5.09-34.2-17.2-46.04-9.6-9.52-22.57-15.56-36.06-16.65-15.15-1.36-30.8 3.47-42.42 13.33-2.74 2.48-5.4 5.05-8.16 7.52 17.55-26.65 39.07-50.6 62.89-71.77 54.24-48.04 123.04-79.2 194.79-88.97zM177.15 353.05c5.56-11.51 11.31-23 18.27-33.72-0.74 5.29-2.86 10.27-3.4 15.59-2.4 17.36 3.63 35.66 15.9 48.17 8.54 8.86 19.91 14.97 32.05 17.02 15.22 2.68 31.52-0.91 43.99-10.08 2.49-2.06 5.14-3.91 7.98-5.45-6.85 12.37-13.05 25.12-17.93 38.4-17.79 47.2-20.75 99.79-8.75 148.76 8.23 33.26 23.09 64.92 43.76 92.27 24.51 32.39 56.74 59 93.52 76.33 38.88 18.59 82.55 26.98 125.55 24.08 37.89-2.37 75.13-13.64 108.18-32.28 29.41-16.52 55.25-39.2 75.94-65.8-0.5 3.79-1.68 7.42-2.69 11.1-2.74 11.66-1.7 24.17 2.89 35.24 6.15 15.36 19.26 27.74 34.93 33.05 20.36 7.29 44.74 2.03 59.92-13.47 1.54-1.57 3.36-2.82 5.13-4.11-29.19 40.78-67.01 75.36-109.99 101.19-48.63 28.95-103.85 46.96-160.31 51.39-34.95 2.8-70.31 0.76-104.65-6.33-72.93-14.97-141.21-52.32-192.56-106.32-48.84-50.29-82.27-115.03-96.14-183.67-7.4-36.97-9.06-75.06-5.09-112.55 4.31-41.13 15.87-81.43 33.5-118.81z" fill="#38CEFF" p-id="1741"></path><path d="M212.61 297.58c11.62-9.86 27.27-14.69 42.42-13.33 13.49 1.09 26.46 7.13 36.06 16.65 12.11 11.84 18.6 29.15 17.2 46.04-0.27 5.98-2.31 11.66-3.36 17.52-3.9 6.99-8.4 13.58-12.99 20.12-2.84 1.54-5.49 3.39-7.98 5.45-12.47 9.17-28.77 12.76-43.99 10.08-12.14-2.05-23.51-8.16-32.05-17.02-12.27-12.51-18.3-30.81-15.9-48.17 0.54-5.32 2.66-10.3 3.4-15.59 2.7-4.9 5.53-9.85 9.03-14.23 2.76-2.47 5.42-5.04 8.16-7.52zM739.63 638.56c14.28-7.44 31.68-8.61 46.79-3.01 14.65 5.19 26.96 16.59 33.3 30.77 5.54 12.03 6.7 25.97 3.4 38.79-1.31 5.36-4.09 10.2-5.52 15.53a42.3 42.3 0 0 1-5.21 7.51c-1.77 1.29-3.59 2.54-5.13 4.11-15.18 15.5-39.56 20.76-59.92 13.47-15.67-5.31-28.78-17.69-34.93-33.05-4.59-11.07-5.63-23.58-2.89-35.24 1.01-3.68 2.19-7.31 2.69-11.1 4-5.68 7.66-11.6 12.07-16.99 4.99-3.76 9.65-8.08 15.35-10.79z" fill="#0B99FF" p-id="1742"></path><path d="M404.01 346.05c15.1-13.12 37.33-17.22 56.11-10.32 8.45 2.85 15.53 8.41 22.93 13.21 48.11 32.24 96.23 64.47 144.36 96.67 7.9 5.09 15.35 10.91 23.72 15.25 11.92 6.45 21.34 17.29 26.1 29.98 4.8 12.65 5.03 26.98 0.4 39.71-4.34 12.34-13 23.12-24.21 29.88-10.99 6.05-21.08 13.55-31.6 20.36-49.55 33.18-99.15 66.28-148.75 99.39-11.86 8.11-26.81 11.51-41 9.18-15.15-2.28-29.13-11.09-37.83-23.67-9.23-13.07-12.48-30.15-8.69-45.7 3.19-14.01 12.07-26.52 24.03-34.44 37.03-24.75 74.03-49.55 111.11-74.21-33.76-22.57-67.51-45.17-101.24-67.79-4.75-3.25-9.69-6.23-14.19-9.82-12.02-9.62-19.89-24.3-21.04-39.68-1.65-17.96 6.02-36.4 19.79-48z" fill="#FF4A4A" p-id="1743"></path></svg>